<svg width="256" height="256" viewBox="0 0 256 256" fill="none" xmlns="http://www.w3.org/2000/svg">
<g clip-path="url(#clip0_206_7)">
<path d="M1.10156 51.194C1.10156 23.855 23.2642 1.69238 50.6032 1.69238H205.048C232.387 1.69238 254.55 23.855 254.55 51.194V205.639C254.55 232.978 232.387 255.141 205.048 255.141H50.6032C23.2642 255.141 1.10156 232.978 1.10156 205.639V51.194Z" fill="#0057B7"/>
<path fill-rule="evenodd" clip-rule="evenodd" d="M74.5165 146.624C73.9171 148.932 73.417 151.308 73.0211 153.746C72.2302 158.617 72.8722 163.815 74.602 169.087C86.4172 173.69 107.878 174.945 128.982 168.398C128.164 165.662 127.467 162.9 126.924 160.135C114.148 164.416 89.5867 154.468 74.5165 146.624ZM80.3088 131.59C93.3641 147.484 113.611 150.028 125.653 149.026C125.628 147.984 125.632 146.947 125.667 145.916C125.71 144.669 125.702 143.239 125.695 141.696C125.657 134.294 125.606 124.291 130.988 119.409C135.03 115.742 132.419 113.1 129.283 109.925C127.373 107.992 125.268 105.861 124.351 103.181C105.126 103.729 89.3702 114.528 80.3088 131.59ZM131.633 176.172C104.98 186.851 90.2634 182.786 79.8991 179.923C79.7655 179.886 79.6327 179.85 79.5005 179.813C82.4627 184.929 86.2339 189.954 90.4961 194.654C102.147 195.855 118.787 194.229 134.923 184.021C133.762 181.472 132.653 178.848 131.633 176.172ZM139.477 193.205C129.722 200.169 113.434 203.999 101.967 205.574C106.329 209.165 110.875 212.338 115.373 214.925C127.31 213.992 137.987 211.592 145.487 203.617C143.561 200.508 141.506 197.001 139.477 193.205ZM149.743 210.193C144.863 216.091 135.793 219.629 124.587 219.404C130.047 221.541 135.175 222.555 139.509 222.105C147.334 221.293 155.311 217.954 155.311 217.954C155.311 217.954 153.034 215.064 149.743 210.193Z" fill="#FFD700"/>
<path d="M183.617 77.4617C183.308 79.3883 181.965 80.7748 180.616 80.5585C179.268 80.3423 178.425 78.6052 178.734 76.6786C179.043 74.752 179.174 72.899 181.735 73.5817C184.296 74.2644 183.926 75.5351 183.617 77.4617Z" fill="#FFD700"/>
<path fill-rule="evenodd" clip-rule="evenodd" d="M187.279 67.6244C183.597 70.4779 182.166 74.3091 181.969 76.9371C181.949 77.2098 181.712 77.4143 181.439 77.3939C181.166 77.3736 180.962 77.1361 180.982 76.8635C181.197 73.9841 182.747 69.8837 186.673 66.8418C190.608 63.7924 196.869 61.852 206.424 63.1839C206.695 63.2216 206.884 63.4717 206.846 63.7425C206.808 64.0132 206.558 64.2021 206.287 64.1644C196.924 62.8593 190.952 64.7784 187.279 67.6244Z" fill="#FFD700"/>
<path d="M189.107 83.0334C187.233 83.5822 185.402 82.9636 185.018 81.6517C184.634 80.3398 185.842 78.8315 187.716 78.2827C189.59 77.7339 190.509 77.5258 191.805 79.6644C193.101 81.803 190.981 82.4846 189.107 83.0334Z" fill="#FFD700"/>
<path fill-rule="evenodd" clip-rule="evenodd" d="M198.742 76.8504C194.174 76.9597 190.455 79.3543 188.394 81.1097C188.186 81.287 187.873 81.2619 187.696 81.0538C187.519 80.8456 187.544 80.5332 187.752 80.356C189.895 78.5309 193.828 75.9777 198.718 75.8606C203.644 75.7427 209.416 78.0985 215.2 85.8457C215.364 86.0648 215.319 86.375 215.1 86.5386C214.881 86.7021 214.571 86.6571 214.407 86.4381C208.764 78.8809 203.272 76.7419 198.742 76.8504Z" fill="#FFD700"/>
<path d="M154.003 120.358C152.695 118.912 146.968 119.626 144.268 120.163C142.794 119.904 140.278 119.157 142.001 118.245C143.725 117.332 151.166 116.747 154.671 116.568C157.928 116.563 164.123 117.625 162.847 121.916C161.251 127.279 155.639 122.166 154.003 120.358Z" fill="#FFD700"/>
<path fill-rule="evenodd" clip-rule="evenodd" d="M168.354 128.609L159.98 121.571L160.935 120.434L169.675 127.779L171.35 134.347L175.799 137.803C176.122 138.055 176.181 138.521 175.929 138.845C175.678 139.169 175.211 139.227 174.887 138.976L170.037 135.207L168.354 128.609Z" fill="#FFD700"/>
<path d="M131.967 129.705C130.217 128.845 129.329 123.143 129.104 120.399C128.449 119.053 127.039 116.839 126.636 118.747C126.232 120.655 127.714 127.97 128.506 131.389C129.396 134.522 132.12 140.187 135.895 137.78C140.613 134.772 134.154 130.781 131.967 129.705Z" fill="#FFD700"/>
<path fill-rule="evenodd" clip-rule="evenodd" d="M134.275 134.711L132.985 135.445L142.003 151.3L139.967 156.593C139.82 156.976 140.011 157.406 140.393 157.553C140.776 157.7 141.206 157.509 141.353 157.127L143.641 151.177L134.275 134.711Z" fill="#FFD700"/>
<path d="M158.621 111.462C155.538 110.058 153.135 109.054 150.41 108.665C149.106 107.931 148.656 106.688 150.585 106.399C152.514 106.111 158.069 106.664 161.413 108.421C164.757 110.178 169.985 111.951 167.356 115.575C164.071 120.104 161.704 112.867 158.621 111.462Z" fill="#FFD700"/>
<path fill-rule="evenodd" clip-rule="evenodd" d="M164.754 114.421L166.025 113.654L174.581 127.815L181.81 129.995C182.202 130.113 182.425 130.528 182.306 130.92C182.188 131.313 181.774 131.535 181.381 131.417L173.605 129.072L164.754 114.421Z" fill="#FFD700"/>
<path d="M137.767 125.498C137.767 125.498 132.634 122.161 131.159 121.826C129.685 121.492 128.191 121.927 129.169 123.08C130.148 124.232 133.589 126.204 135.831 129.244C138.073 132.284 139.585 138.071 142.77 134.926C146.461 131.28 137.767 125.498 137.767 125.498Z" fill="#FFD700"/>
<path fill-rule="evenodd" clip-rule="evenodd" d="M141.755 132.652L140.695 133.693L150.236 143.404L150.951 150.077C150.995 150.485 151.361 150.78 151.768 150.737C152.176 150.693 152.471 150.327 152.428 149.919L151.658 142.732L141.755 132.652Z" fill="#FFD700"/>
<path fill-rule="evenodd" clip-rule="evenodd" d="M53.9338 56.5095C44.3093 52.5378 37.6349 51.6218 33.021 52.6853L32.7986 51.7205C37.7149 50.5873 44.6246 51.597 54.3114 55.5943C64.0113 59.5971 76.5621 66.6239 92.7947 77.6211C92.8173 77.6365 92.8379 77.6482 92.8591 77.6583C94.3549 78.369 96.1443 79.2595 98.1185 80.2421C102.48 82.4129 107.744 85.0328 112.738 87.154C116.362 88.6933 119.812 89.9553 122.637 90.5855C124.051 90.9008 125.287 91.0528 126.298 91.0112C127.316 90.9693 128.05 90.7342 128.524 90.3338L129.163 91.0901C128.452 91.6907 127.465 91.9541 126.339 92.0004C125.208 92.0469 123.879 91.8767 122.422 91.5518C119.507 90.9018 115.992 89.6116 112.351 88.0653C107.33 85.9325 102.009 83.2843 97.6359 81.1081C95.6734 80.1314 93.9019 79.2498 92.4342 78.5525C92.3643 78.5193 92.3002 78.482 92.2394 78.4408C76.033 67.4613 63.5452 60.4758 53.9338 56.5095Z" fill="#FFD700"/>
<path fill-rule="evenodd" clip-rule="evenodd" d="M77.6245 60.9382C79.8151 62.8401 82.8441 65.584 87.3345 70.6017C89.024 72.4896 91.6688 74.4751 94.8909 76.4572C98.1064 78.4353 101.869 80.3933 105.771 82.2326C113.576 85.9112 121.911 89.1019 127.486 91.0168C127.883 91.153 128.201 91.4501 128.344 91.8217C128.494 92.2088 128.444 92.6662 128.115 93.0246C126.954 94.2874 124.579 95.2384 120.634 94.9962C116.677 94.7532 111.067 93.3089 103.315 89.678C94.6334 85.6113 87.7049 83.5039 82.581 82.5187C77.4379 81.5297 74.1563 81.6796 72.7449 82.0775L72.4762 81.1247C74.1087 80.6644 77.5713 80.5472 82.768 81.5464C87.9839 82.5494 94.9907 84.6854 103.735 88.7814C111.423 92.3826 116.908 93.7754 120.695 94.008C124.494 94.2413 126.511 93.3063 127.386 92.3548C127.419 92.3181 127.429 92.2889 127.433 92.2687C127.437 92.2464 127.435 92.2161 127.421 92.1781C127.39 92.0976 127.304 92.001 127.164 91.9531C121.564 90.0294 113.193 86.8255 105.349 83.1281C101.427 81.2794 97.6292 79.3041 94.3721 77.3004C91.1215 75.3007 88.3813 73.2559 86.5967 71.2619C82.1388 66.2806 79.1406 63.5656 76.9755 61.6858C76.6878 61.4361 76.4135 61.2 76.1512 60.9743C74.4521 59.5123 73.26 58.4865 72.2406 57.0045L73.0563 56.4434C73.9981 57.8126 75.0836 58.7476 76.7924 60.2194C77.0545 60.4452 77.3313 60.6836 77.6245 60.9382Z" fill="#FFD700"/>
<path fill-rule="evenodd" clip-rule="evenodd" d="M101.668 92.3147C98.8441 92.783 95.9297 93.4736 94.1115 93.9662L93.8526 93.0106C95.6953 92.5114 98.6426 91.8129 101.506 91.338C102.937 91.1006 104.356 90.9176 105.609 90.8445C106.851 90.7721 107.975 90.8042 108.795 91.0231L108.54 91.9797C107.879 91.8031 106.885 91.7619 105.667 91.8329C104.461 91.9032 103.08 92.0805 101.668 92.3147Z" fill="#FFD700"/>
<path fill-rule="evenodd" clip-rule="evenodd" d="M89.1827 51.1005C86.6665 47.9971 83.8273 44.4955 81.5885 41.9001L82.3381 41.2534C84.5875 43.861 87.4365 47.3748 89.9501 50.475C90.1904 50.7714 90.4277 51.064 90.6611 51.3516C91.9999 53.0021 93.2105 54.4895 94.1425 55.6015C94.6088 56.1578 95.0023 56.6165 95.3058 56.9532C95.4577 57.1217 95.5838 57.2562 95.6832 57.3555C95.7329 57.4051 95.7734 57.4435 95.8052 57.4717C95.821 57.4857 95.8334 57.4961 95.8426 57.5035C95.8511 57.5102 95.8551 57.513 95.8551 57.513L95.8548 57.5128L95.308 58.3381C95.206 58.2705 95.0918 58.1641 94.9834 58.0558C94.8668 57.9393 94.7278 57.7907 94.5703 57.616C94.255 57.266 93.8525 56.7967 93.3838 56.2374C92.4457 55.1183 91.2302 53.6247 89.8922 51.9754C89.6592 51.6881 89.4224 51.3961 89.1827 51.1005Z" fill="#FFD700"/>
<path fill-rule="evenodd" clip-rule="evenodd" d="M90.1382 55.0522C92.3389 56.2131 94.2428 57.1025 95.5397 57.4919C96.6914 57.8377 98.4433 58.8047 100.483 60.0986C102.54 61.4033 104.94 63.0734 107.405 64.8661C112.336 68.4519 117.549 72.5423 120.845 75.2155L120.222 75.9844C116.935 73.319 111.736 69.2397 106.823 65.6668C104.365 63.88 101.985 62.2235 99.9528 60.9347C97.904 59.635 96.2588 58.7415 95.255 58.4401C93.8573 58.0204 91.8787 57.0897 89.6763 55.9278C87.4644 54.761 84.9946 53.3436 82.6035 51.9322C80.6969 50.8067 78.8476 49.6897 77.2163 48.7043C74.7339 47.2049 72.7563 46.0104 71.8494 45.5549L72.2938 44.6702C73.2322 45.1416 75.2765 46.3761 77.8036 47.9022C79.4272 48.8827 81.25 49.9835 83.1068 51.0796C85.4929 52.4881 87.947 53.8962 90.1382 55.0522Z" fill="#FFD700"/>
<path fill-rule="evenodd" clip-rule="evenodd" d="M66.1055 36.2518C66.4534 35.6262 67.1579 35.1908 68.0005 35.2981C77.6545 36.5263 88.7732 43.6408 98.6971 51.9114C108.663 60.2172 117.598 69.8387 122.907 76.3326C122.907 76.3327 122.907 76.3327 122.907 76.3328L137.116 88.2938C137.843 88.906 137.94 89.818 137.715 90.515C137.492 91.205 136.904 91.866 136.025 92.0192C134.598 92.268 133.38 92.6635 132.646 92.9352C131.791 93.2516 130.774 92.9845 130.23 92.1709C129.382 90.9021 127.508 88.1277 125.703 85.6641C124.798 84.4298 123.924 83.2906 123.21 82.4611C122.851 82.0439 122.552 81.7268 122.322 81.5191C122.232 81.4385 122.166 81.3855 122.12 81.3531C121.727 81.3007 121.305 81.1588 120.922 81.0047C120.468 80.8219 119.979 80.5843 119.505 80.3335C118.585 79.8465 117.667 79.2813 117.078 78.8931C99.6996 70.3103 90.9499 63.1179 88.5227 60.3178C88.5179 60.3122 88.5122 60.3076 88.5047 60.3038C81.1303 56.473 77.118 53.2852 74.1464 49.8452C72.669 48.135 71.4656 46.3816 70.2459 44.5023C69.8961 43.9633 69.5461 43.4159 69.1881 42.8558C68.2898 41.4507 67.3405 39.9657 66.2154 38.3351C65.7574 37.6712 65.7636 36.8664 66.1055 36.2518ZM122.062 81.3159C122.062 81.3156 122.066 81.3174 122.074 81.3224C122.066 81.3187 122.062 81.3163 122.062 81.3159ZM67.8387 37.1988C67.8387 37.1988 67.8388 37.199 67.8389 37.1996C67.8387 37.199 67.8386 37.1988 67.8387 37.1988ZM67.8937 37.2809C69.019 38.915 69.9828 40.4226 70.8744 41.8173C71.228 42.3704 71.5703 42.9058 71.9068 43.4243C73.1114 45.2804 74.2567 46.9439 75.6448 48.5508C78.404 51.7449 82.1892 54.7918 89.4175 58.5466C89.6458 58.6652 89.8497 58.8257 90.0189 59.0209C92.1945 61.5307 100.686 68.5949 118.01 77.1451L118.066 77.1729L118.118 77.2076C118.663 77.5686 119.552 78.1182 120.431 78.5833C120.871 78.816 121.294 79.0199 121.662 79.1679C122.05 79.3244 122.298 79.3855 122.415 79.3939C122.737 79.4171 122.998 79.5633 123.147 79.6577C123.319 79.7674 123.489 79.9055 123.649 80.0494C123.969 80.3389 124.331 80.7282 124.711 81.1699C125.476 82.0584 126.386 83.2468 127.3 84.4938C129.131 86.9928 131.024 89.7958 131.876 91.0709C131.877 91.0716 131.878 91.0739 131.883 91.0765C131.885 91.0781 131.889 91.0799 131.894 91.0815C131.911 91.0865 131.934 91.0873 131.959 91.0782C132.767 90.7791 134.105 90.344 135.685 90.0685C135.705 90.0651 135.728 90.0558 135.755 90.03C135.785 90.0014 135.814 89.9579 135.83 89.9071C135.847 89.8559 135.844 89.8212 135.841 89.8095C135.841 89.8089 135.841 89.8084 135.841 89.8082C135.841 89.8078 135.841 89.8078 135.841 89.8079C135.841 89.8083 135.842 89.8095 135.841 89.8085L121.632 77.8475C121.54 77.7702 121.455 77.6851 121.376 77.5878C116.132 71.1729 107.283 61.6444 97.4294 53.4325C87.5849 45.228 76.9077 38.4843 67.8937 37.2809Z" fill="#FFD700"/>
<path fill-rule="evenodd" clip-rule="evenodd" d="M78.6189 58.1131C95.0953 66.9634 109.831 78.0618 113.039 81.018C117.223 84.8726 124.379 87.5599 128.753 88.7861C130.206 89.1933 130.804 91.1204 129.537 92.1955C115.928 103.739 101.355 99.0475 95.4329 94.9895C95.4318 94.9887 95.4311 94.9883 95.4306 94.9881C95.4303 94.9879 95.4301 94.9878 95.43 94.9878C95.4296 94.9876 95.4279 94.9868 95.424 94.9857C86.8148 92.6216 79.8661 89.0259 74.9706 85.2633C72.5235 83.3826 70.5733 81.4478 69.1857 79.5878C67.8079 77.7409 66.9367 75.9031 66.7532 74.2233C66.7471 74.1674 66.7253 74.1186 66.7006 74.0868C66.6891 74.072 66.6793 74.0638 66.6734 74.0597C66.6681 74.056 66.6653 74.0552 66.6641 74.0549C61.4254 72.6198 57.7792 71.2522 55.2938 70.0086C52.842 68.7818 51.3979 67.6168 50.7352 66.5175C50.6778 66.4223 50.6217 66.3268 50.5658 66.2316C50.3912 65.9344 50.2188 65.6408 50.0159 65.3714C49.7657 65.0391 49.619 64.9559 49.5907 64.9399C49.5854 64.9369 49.5843 64.9363 49.5874 64.9368L47.2418 64.5485C41.8391 63.8312 37.279 61.9921 34.436 59.3993C33.0058 58.0951 31.9819 56.5726 31.5465 54.8824C31.1077 53.1787 31.2871 51.3806 32.1399 49.5857C32.3017 49.2452 32.5627 48.9603 32.8847 48.7688C38.3141 45.541 45.7293 45.7575 53.6674 47.7696C61.6461 49.792 70.3761 53.6855 78.6189 58.1131ZM33.9175 50.4584C38.6501 47.6568 45.3963 47.7158 53.1809 49.689C60.9363 51.6548 69.5047 55.465 77.6819 59.8574C94.0453 68.6471 108.636 79.6538 111.698 82.4743C116.244 86.663 123.788 89.4505 128.219 90.6926C128.223 90.6938 128.226 90.695 128.228 90.6959C128.23 90.6966 128.231 90.6972 128.231 90.6976C128.232 90.698 128.233 90.6984 128.233 90.6988C128.234 90.6994 128.234 90.7 128.235 90.7006C128.236 90.7011 128.236 90.7016 128.236 90.7021C115.528 101.466 101.995 97.0859 96.5521 93.3561C96.3654 93.2282 96.1627 93.1352 95.9483 93.0764C87.5619 90.7733 80.8502 87.2849 76.1772 83.6934C73.84 81.8971 72.0289 80.0874 70.7728 78.4038C69.5069 76.707 68.852 75.2021 68.7216 74.0083C68.6346 73.2117 68.1 72.3952 67.1872 72.1452C62.0185 70.7293 58.5071 69.4023 56.1799 68.2378C53.8191 67.0566 52.7957 66.1003 52.431 65.4953C52.3958 65.4368 52.3551 65.3674 52.3099 65.2901C52.13 64.9832 51.8769 64.5511 51.5977 64.1803C51.2776 63.7553 50.7177 63.1168 49.9108 62.9833L47.5335 62.5898L47.5176 62.5877C42.3507 61.904 38.218 60.1686 35.7702 57.9363C34.5535 56.8267 33.7819 55.6224 33.464 54.3884C33.1513 53.1745 33.2579 51.8586 33.9175 50.4584Z" fill="#FFD700"/>
<path d="M184.764 78.7577C173.474 72.2278 156.868 75.2373 157.867 88.6099C158.867 101.982 179.658 109.16 187.825 101.982C195.993 94.8049 196.055 85.2876 184.764 78.7577Z" fill="#FFD700"/>
<path d="M163.136 90.9317C169.496 99.6588 164.175 114.37 151.25 123.789C138.325 133.209 122.691 133.77 116.33 125.043C109.97 116.316 115.292 101.605 128.217 92.1855C141.142 82.7659 156.776 82.2045 163.136 90.9317Z" fill="#FFD700"/>
<path d="M151.193 80.9441C151.936 82.4291 153.669 85.1517 158.371 86.6368L165.301 98.5172C165.301 98.5172 164.311 98.5172 167.281 102.725C165.796 102.725 165.054 104.705 165.054 104.705C165.054 104.705 167.281 105.447 166.786 108.665C162.826 108.17 161.341 111.635 161.341 111.635C161.341 111.635 160.599 114.11 161.589 116.09C161.341 117.328 159.021 117.526 156.886 117.133C155.531 116.884 154.906 116.585 154.906 116.585L155.649 124.258C153.173 121.288 150.879 123.002 151.688 126.238C149.956 125.991 149.708 124.753 149.213 125.248C148.718 125.743 148.306 128.961 146.491 129.951C146.408 128.301 146.887 127.08 145.501 127.476C143.768 127.971 145.253 129.456 144.511 129.951C143.824 130.408 140.457 128.679 137.736 128.286C138.371 128.725 135.959 130.771 136.59 131.683L129.165 129.951C129.165 129.951 127.433 132.673 127.68 134.158C126.195 134.653 125.205 131.188 125.205 131.188C124.298 122.773 123.572 105.794 120.007 105.2C116.443 104.606 115.057 101.24 116.047 99.2597C119.017 100.002 120.997 99.0122 120.997 99.0122C120.997 99.0122 119.512 97.0321 120.502 94.5571C123.968 96.5371 130.898 89.8544 130.898 89.8544C130.898 89.8544 131.393 81.4392 133.373 83.9142C135.353 86.3893 140.303 86.3893 140.303 86.3893C140.303 86.3893 140.798 80.9441 141.788 82.4292C142.778 83.9143 149.708 84.6567 149.708 84.6567C149.708 84.6567 150.451 79.459 151.193 80.9441Z" fill="#FFD700"/>
</g>
<defs>
<clipPath id="clip0_206_7">
<rect width="256" height="256" fill="white"/>
</clipPath>
</defs>
</svg>
