<svg width="127" height="42" viewBox="0 0 127 42" fill="none" xmlns="http://www.w3.org/2000/svg">
	<circle cx="20" cy="21" r="20" fill="#0057B7" />
	<path fill-rule="evenodd" clip-rule="evenodd" d="M13.1601 25.2289C13.0714 25.5705 12.9974 25.9223 12.9388 26.2832C12.8217 27.0042 12.9167 27.7736 13.1728 28.5541C14.9219 29.2355 18.0987 29.4213 21.2228 28.4521C21.1019 28.0471 20.9986 27.6382 20.9183 27.229C19.0269 27.8626 15.3911 26.39 13.1601 25.2289ZM14.0176 23.0033C15.9502 25.3562 18.9475 25.7328 20.7301 25.5844C20.7263 25.4302 20.7269 25.2766 20.7322 25.124C20.7385 24.9394 20.7374 24.7277 20.7362 24.4993C20.7307 23.4036 20.7232 21.9229 21.5198 21.2001C22.1181 20.6572 21.7317 20.2661 21.2674 19.7961C20.9847 19.5099 20.6731 19.1945 20.5373 18.7978C17.6914 18.8789 15.359 20.4775 14.0176 23.0033ZM21.6153 29.603C17.6698 31.1839 15.4912 30.5821 13.957 30.1583C13.9372 30.1528 13.9175 30.1474 13.898 30.142C14.3365 30.8993 14.8947 31.6432 15.5257 32.3389C17.2503 32.5168 19.7137 32.276 22.1024 30.7649C21.9304 30.3876 21.7663 29.9991 21.6153 29.603ZM22.7764 32.1245C21.3325 33.1554 18.9213 33.7223 17.2237 33.9555C17.8695 34.4871 18.5424 34.9568 19.2082 35.3397C20.9754 35.2016 22.5559 34.8462 23.6662 33.6658C23.381 33.2055 23.0769 32.6863 22.7764 32.1245ZM24.2962 34.6392C23.5738 35.5124 22.2311 36.0361 20.5723 36.0028C21.3805 36.3192 22.1397 36.4692 22.7812 36.4026C23.9395 36.2824 25.1204 35.788 25.1204 35.788C25.1204 35.788 24.7835 35.3603 24.2962 34.6392Z" fill="#ffd700" />
	<path d="M29.3093 14.9904C29.2635 15.2756 29.0646 15.4809 28.865 15.4489C28.6653 15.4169 28.5406 15.1597 28.5863 14.8745C28.632 14.5893 28.6515 14.315 29.0306 14.4161C29.4097 14.5171 29.355 14.7052 29.3093 14.9904Z" fill="#ffd700" />
	<path fill-rule="evenodd" clip-rule="evenodd" d="M29.8526 13.5344C29.3075 13.9568 29.0956 14.524 29.0666 14.913C29.0636 14.9534 29.0284 14.9837 28.9881 14.9806C28.9477 14.9776 28.9174 14.9425 28.9204 14.9021C28.9522 14.4759 29.1817 13.8689 29.7628 13.4186C30.3453 12.9672 31.2723 12.6799 32.6867 12.8771C32.7268 12.8827 32.7547 12.9197 32.7491 12.9598C32.7435 12.9999 32.7065 13.0278 32.6664 13.0222C31.2804 12.829 30.3963 13.1131 29.8526 13.5344Z" fill="#ffd700" />
	<path d="M30.1231 15.8153C29.8457 15.8965 29.5747 15.805 29.5178 15.6108C29.461 15.4166 29.6398 15.1933 29.9172 15.112C30.1946 15.0308 30.3307 15 30.5225 15.3166C30.7143 15.6331 30.4005 15.734 30.1231 15.8153Z" fill="#ffd700" />
	<path fill-rule="evenodd" clip-rule="evenodd" d="M31.5491 14.9C30.873 14.9162 30.3224 15.2706 30.0173 15.5305C29.9865 15.5568 29.9402 15.553 29.914 15.5222C29.8877 15.4914 29.8914 15.4452 29.9222 15.4189C30.2395 15.1488 30.8217 14.7708 31.5456 14.7535C32.2749 14.736 33.1292 15.0847 33.9856 16.2316C34.0098 16.264 34.0031 16.31 33.9707 16.3342C33.9382 16.3584 33.8923 16.3517 33.8681 16.3193C33.0328 15.2006 32.2198 14.8839 31.5491 14.9Z" fill="#ffd700" />
	<path d="M24.9264 21.3405C24.7327 21.1264 23.885 21.232 23.4853 21.3116C23.2671 21.2732 22.8945 21.1626 23.1497 21.0276C23.4048 20.8925 24.5063 20.8059 25.0252 20.7794C25.5074 20.7786 26.4245 20.9358 26.2355 21.571C25.9993 22.3649 25.1685 21.608 24.9264 21.3405Z" fill="#ffd700" />
	<path fill-rule="evenodd" clip-rule="evenodd" d="M27.0515 22.5618L25.8118 21.5199L25.9532 21.3516L27.247 22.439L27.495 23.4112L28.1535 23.9228C28.2014 23.9601 28.2101 24.0292 28.1728 24.0771C28.1356 24.125 28.0665 24.1337 28.0186 24.0964L27.3006 23.5385L27.0515 22.5618Z" fill="#ffd700" />
	<path d="M21.6645 22.724C21.4054 22.5966 21.274 21.7525 21.2407 21.3463C21.1438 21.1471 20.935 20.8193 20.8753 21.1017C20.8156 21.3841 21.035 22.467 21.1522 22.9732C21.284 23.437 21.6872 24.2756 22.246 23.9193C22.9444 23.474 21.9883 22.8832 21.6645 22.724Z" fill="#ffd700" />
	<path fill-rule="evenodd" clip-rule="evenodd" d="M22.0066 23.4649L21.8156 23.5736L23.1506 25.9207L22.8492 26.7043C22.8274 26.761 22.8556 26.8246 22.9123 26.8464C22.969 26.8682 23.0326 26.8399 23.0544 26.7833L23.3931 25.9025L22.0066 23.4649Z" fill="#ffd700" />
	<path d="M25.611 20.0237C25.1546 19.8158 24.7989 19.6672 24.3954 19.6096C24.2024 19.5009 24.1359 19.3169 24.4214 19.2742C24.7069 19.2315 25.5293 19.3134 26.0243 19.5734C26.5193 19.8335 27.2932 20.096 26.9041 20.6324C26.4177 21.3029 26.0674 20.2316 25.611 20.0237Z" fill="#ffd700" />
	<path fill-rule="evenodd" clip-rule="evenodd" d="M26.5185 20.4616L26.7067 20.3479L27.9732 22.4443L29.0434 22.767C29.1015 22.7845 29.1344 22.8458 29.1169 22.9039C29.0994 22.9621 29.038 22.995 28.9799 22.9774L27.8288 22.6303L26.5185 20.4616Z" fill="#ffd700" />
	<path d="M22.5229 22.1014C22.5229 22.1014 21.763 21.6074 21.5448 21.5579C21.3266 21.5083 21.1054 21.5728 21.2502 21.7434C21.395 21.914 21.9044 22.2059 22.2363 22.6559C22.5682 23.1059 22.7921 23.9627 23.2636 23.497C23.81 22.9573 22.5229 22.1014 22.5229 22.1014Z" fill="#ffd700" />
	<path fill-rule="evenodd" clip-rule="evenodd" d="M23.1143 23.1606L22.9574 23.3147L24.3698 24.7522L24.4756 25.7401C24.4821 25.8005 24.5363 25.8442 24.5966 25.8377C24.657 25.8312 24.7007 25.7771 24.6942 25.7167L24.5802 24.6528L23.1143 23.1606Z" fill="#ffd700" />
	<path fill-rule="evenodd" clip-rule="evenodd" d="M10.1117 11.8888C8.68692 11.3008 7.69888 11.1652 7.01587 11.3226L6.98295 11.1798C7.71072 11.0121 8.7336 11.1615 10.1676 11.7533C11.6035 12.3458 13.4614 13.386 15.8644 15.014C15.8677 15.0163 15.8708 15.018 15.8739 15.0195C16.0954 15.1247 16.3603 15.2565 16.6525 15.402C17.2982 15.7233 18.0774 16.1112 18.8167 16.4252C19.3532 16.6531 19.8638 16.8399 20.2821 16.9332C20.4914 16.9798 20.6743 17.0023 20.8241 16.9962C20.9747 16.99 21.0834 16.9552 21.1536 16.8959L21.2482 17.0079C21.1429 17.0968 20.9967 17.1358 20.8301 17.1426C20.6626 17.1495 20.4659 17.1243 20.2502 17.0762C19.8187 16.98 19.2984 16.789 18.7594 16.5601C18.0161 16.2444 17.2284 15.8523 16.5811 15.5302C16.2905 15.3856 16.0283 15.2551 15.811 15.1519C15.8007 15.147 15.7912 15.1414 15.7822 15.1353C13.3831 13.51 11.5345 12.4759 10.1117 11.8888Z" fill="#ffd700" />
	<path fill-rule="evenodd" clip-rule="evenodd" d="M13.6191 12.5445C13.9434 12.826 14.3918 13.2322 15.0566 13.975C15.3067 14.2545 15.6982 14.5484 16.1751 14.8418C16.6512 15.1346 17.2081 15.4245 17.7858 15.6968C18.9411 16.2413 20.1751 16.7137 21.0003 16.9971C21.059 17.0173 21.1062 17.0613 21.1274 17.1163C21.1495 17.1736 21.1422 17.2413 21.0934 17.2943C20.9216 17.4813 20.57 17.6221 19.986 17.5862C19.4003 17.5502 18.5697 17.3364 17.4222 16.7989C16.137 16.1969 15.1114 15.885 14.3529 15.7391C13.5915 15.5927 13.1057 15.6149 12.8968 15.6738L12.857 15.5327C13.0987 15.4646 13.6113 15.4473 14.3806 15.5952C15.1527 15.7437 16.1899 16.0599 17.4844 16.6662C18.6225 17.1993 19.4344 17.4055 19.995 17.4399C20.5574 17.4744 20.8561 17.336 20.9855 17.1952C20.9905 17.1898 20.992 17.1854 20.9925 17.1824C20.993 17.1791 20.9928 17.1747 20.9907 17.169C20.9861 17.1571 20.9733 17.1428 20.9527 17.1357C20.1236 16.851 18.8846 16.3767 17.7233 15.8293C17.1427 15.5557 16.5805 15.2632 16.0984 14.9666C15.6172 14.6706 15.2115 14.3679 14.9473 14.0727C14.2874 13.3353 13.8436 12.9334 13.5231 12.6551C13.4805 12.6182 13.4399 12.5832 13.401 12.5498C13.1495 12.3334 12.973 12.1815 12.8222 11.9621L12.9429 11.8791C13.0823 12.0818 13.243 12.2202 13.496 12.4381C13.5348 12.4715 13.5757 12.5068 13.6191 12.5445Z" fill="#ffd700" />
	<path fill-rule="evenodd" clip-rule="evenodd" d="M17.1796 17.1892C16.7616 17.2585 16.3301 17.3608 16.061 17.4337L16.0226 17.2922C16.2954 17.2183 16.7317 17.1149 17.1556 17.0446C17.3675 17.0095 17.5775 16.9824 17.763 16.9716C17.9468 16.9609 18.1133 16.9656 18.2346 16.998L18.1968 17.1396C18.099 17.1135 17.9518 17.1074 17.7716 17.1179C17.5931 17.1283 17.3886 17.1545 17.1796 17.1892Z" fill="#ffd700" />
	<path fill-rule="evenodd" clip-rule="evenodd" d="M15.3295 11.088C14.957 10.6286 14.5367 10.1103 14.2053 9.72607L14.3162 9.63034C14.6492 10.0164 15.071 10.5365 15.4431 10.9954C15.4786 11.0393 15.5138 11.0826 15.5483 11.1252C15.7465 11.3695 15.9257 11.5897 16.0637 11.7543C16.1327 11.8367 16.191 11.9046 16.2359 11.9544C16.2584 11.9794 16.277 11.9993 16.2918 12.014C16.2991 12.0213 16.3051 12.027 16.3098 12.0312C16.3122 12.0333 16.314 12.0348 16.3154 12.0359C16.3166 12.0369 16.3172 12.0373 16.3172 12.0373L16.3172 12.0373L16.2362 12.1595C16.2211 12.1494 16.2042 12.1337 16.1882 12.1177C16.1709 12.1004 16.1503 12.0784 16.127 12.0526C16.0803 12.0007 16.0207 11.9313 15.9514 11.8485C15.8125 11.6828 15.6326 11.4617 15.4345 11.2176C15.4 11.175 15.3649 11.1318 15.3295 11.088Z" fill="#ffd700" />
	<path fill-rule="evenodd" clip-rule="evenodd" d="M15.4727 11.6733C15.7985 11.8452 16.0803 11.9768 16.2723 12.0345C16.4428 12.0856 16.7022 12.2288 17.0041 12.4203C17.3086 12.6135 17.6638 12.8607 18.0288 13.1261C18.7588 13.6569 19.5305 14.2624 20.0184 14.6582L19.9261 14.772C19.4396 14.3774 18.6699 13.7735 17.9426 13.2446C17.5788 12.9801 17.2264 12.7349 16.9256 12.5441C16.6223 12.3517 16.3788 12.2194 16.2302 12.1748C16.0233 12.1127 15.7304 11.9749 15.4043 11.8029C15.0769 11.6302 14.7113 11.4204 14.3573 11.2114C14.0751 11.0448 13.8013 10.8795 13.5598 10.7336C13.1924 10.5116 12.8996 10.3348 12.7654 10.2674L12.8311 10.1364C12.9701 10.2062 13.2727 10.3889 13.6468 10.6149C13.8871 10.76 14.157 10.923 14.4318 11.0852C14.7851 11.2937 15.1483 11.5022 15.4727 11.6733Z" fill="#ffd700" />
	<path fill-rule="evenodd" clip-rule="evenodd" d="M11.9119 8.88977C11.9634 8.79716 12.0677 8.73272 12.1924 8.74858C13.6215 8.93041 15.2675 9.98359 16.7366 11.2079C18.2119 12.4375 19.5346 13.8618 20.3205 14.8231C20.3205 14.8231 20.3205 14.8231 20.3205 14.8231L22.4238 16.5937C22.5315 16.6844 22.5458 16.8194 22.5125 16.9226C22.4796 17.0247 22.3924 17.1226 22.2624 17.1452C22.0511 17.1821 21.8708 17.2406 21.7621 17.2808C21.6356 17.3277 21.485 17.2881 21.4045 17.1677C21.279 16.9799 21.0015 16.5692 20.7343 16.2045C20.6004 16.0218 20.4709 15.8531 20.3653 15.7303C20.3122 15.6686 20.2679 15.6216 20.2338 15.5909C20.2206 15.5789 20.2107 15.5711 20.204 15.5663C20.1458 15.5585 20.0833 15.5375 20.0266 15.5147C19.9594 15.4877 19.887 15.4525 19.8169 15.4154C19.6806 15.3433 19.5447 15.2596 19.4575 15.2021C16.885 13.9316 15.5897 12.8669 15.2304 12.4524C15.2297 12.4515 15.2289 12.4509 15.2277 12.4503C14.1361 11.8832 13.5421 11.4113 13.1022 10.9021C12.8835 10.6489 12.7054 10.3893 12.5248 10.1111C12.473 10.0313 12.4212 9.9503 12.3682 9.86738C12.2352 9.65938 12.0947 9.43956 11.9282 9.19817C11.8604 9.0999 11.8613 8.98076 11.9119 8.88977ZM20.1953 15.5608C20.1953 15.5607 20.1959 15.561 20.1971 15.5617C20.196 15.5612 20.1954 15.5608 20.1953 15.5608ZM12.1685 9.02995C12.1685 9.02995 12.1685 9.02999 12.1685 9.03007C12.1685 9.02999 12.1685 9.02995 12.1685 9.02995ZM12.1766 9.04212C12.3432 9.28402 12.4859 9.50719 12.6179 9.71365C12.6702 9.79554 12.7209 9.87479 12.7707 9.95155C12.949 10.2263 13.1186 10.4726 13.324 10.7104C13.7325 11.1833 14.2928 11.6343 15.3629 12.1902C15.3967 12.2077 15.4269 12.2315 15.4519 12.2604C15.7739 12.6319 17.0309 13.6777 19.5955 14.9434L19.6038 14.9475L19.6116 14.9526C19.6922 15.0061 19.8238 15.0874 19.954 15.1563C20.0191 15.1907 20.0817 15.2209 20.1361 15.2428C20.1936 15.266 20.2304 15.275 20.2476 15.2763C20.2953 15.2797 20.3339 15.3013 20.3559 15.3153C20.3815 15.3315 20.4066 15.352 20.4302 15.3733C20.4777 15.4161 20.5313 15.4738 20.5876 15.5392C20.7007 15.6707 20.8355 15.8466 20.9708 16.0312C21.2418 16.4012 21.5221 16.8161 21.6482 17.0049C21.6483 17.005 21.6485 17.0053 21.6491 17.0057C21.6495 17.0059 21.6501 17.0062 21.6509 17.0064C21.6533 17.0072 21.6568 17.0073 21.6604 17.0059C21.78 16.9617 21.9781 16.8972 22.212 16.8565C22.215 16.856 22.2184 16.8546 22.2224 16.8508C22.2269 16.8465 22.2311 16.8401 22.2335 16.8326C22.236 16.825 22.2355 16.8199 22.2351 16.8181C22.2351 16.818 22.2351 16.818 22.2351 16.8179C22.2351 16.8179 22.2351 16.8179 22.2351 16.8179C22.2352 16.8179 22.2352 16.8181 22.235 16.818L20.1317 15.0473C20.1181 15.0359 20.1056 15.0233 20.0938 15.0089C19.3175 14.0593 18.0076 12.6487 16.5489 11.4331C15.0916 10.2185 13.511 9.22026 12.1766 9.04212Z" fill="#ffd700" />
	<path fill-rule="evenodd" clip-rule="evenodd" d="M13.766 12.1262C16.205 13.4364 18.3863 15.0793 18.8614 15.5169C19.4807 16.0876 20.54 16.4854 21.1876 16.6669C21.4026 16.7272 21.4912 17.0124 21.3035 17.1716C19.289 18.8804 17.1317 18.1859 16.255 17.5852C16.2548 17.5851 16.2547 17.585 16.2547 17.585C16.2546 17.585 16.2546 17.5849 16.2546 17.5849C16.2545 17.5849 16.2543 17.5848 16.2537 17.5846C14.9792 17.2347 13.9506 16.7024 13.2259 16.1454C12.8636 15.867 12.575 15.5806 12.3695 15.3052C12.1656 15.0318 12.0366 14.7598 12.0094 14.5111C12.0085 14.5028 12.0053 14.4956 12.0017 14.4909C12 14.4887 11.9985 14.4875 11.9976 14.4869C11.9968 14.4863 11.9964 14.4862 11.9962 14.4862C11.2207 14.2737 10.681 14.0713 10.3131 13.8872C9.95011 13.7056 9.73633 13.5331 9.63824 13.3704C9.62974 13.3563 9.62143 13.3421 9.61316 13.3281C9.58732 13.2841 9.56179 13.2406 9.53175 13.2007C9.49471 13.1515 9.473 13.1392 9.46881 13.1368C9.46803 13.1364 9.46786 13.1363 9.46833 13.1364L9.12109 13.0789C8.3213 12.9727 7.64627 12.7005 7.2254 12.3167C7.01369 12.1236 6.86212 11.8982 6.79766 11.648C6.73269 11.3958 6.75926 11.1296 6.8855 10.8639C6.90945 10.8135 6.94809 10.7713 6.99576 10.743C7.79948 10.2652 8.89719 10.2972 10.0723 10.5951C11.2534 10.8944 12.5458 11.4708 13.766 12.1262ZM7.14865 10.9931C7.84923 10.5784 8.8479 10.5871 10.0003 10.8792C11.1483 11.1702 12.4168 11.7342 13.6273 12.3845C16.0496 13.6856 18.2095 15.315 18.6628 15.7325C19.3358 16.3526 20.4525 16.7652 21.1085 16.9491C21.1091 16.9493 21.1095 16.9495 21.1098 16.9496C21.1101 16.9497 21.1102 16.9498 21.1103 16.9498C21.1104 16.9499 21.1105 16.95 21.1106 16.95C21.1107 16.9501 21.1108 16.9502 21.1109 16.9503C21.1109 16.9504 21.111 16.9504 21.111 16.9505C19.2297 18.5439 17.2265 17.8955 16.4207 17.3434C16.3931 17.3245 16.363 17.3107 16.3313 17.302C15.0898 16.9611 14.0963 16.4447 13.4045 15.913C13.0585 15.6471 12.7904 15.3792 12.6045 15.13C12.4171 14.8788 12.3201 14.656 12.3008 14.4793C12.288 14.3614 12.2088 14.2405 12.0737 14.2035C11.3085 13.9939 10.7887 13.7974 10.4442 13.625C10.0948 13.4502 9.94326 13.3086 9.88927 13.2191C9.88406 13.2104 9.87804 13.2001 9.87134 13.1887C9.84471 13.1433 9.80724 13.0793 9.76591 13.0244C9.71853 12.9615 9.63564 12.867 9.51619 12.8472L9.16427 12.789L9.16191 12.7886C8.39704 12.6874 7.78526 12.4305 7.42291 12.1001C7.24279 11.9358 7.12857 11.7575 7.08151 11.5749C7.03522 11.3952 7.051 11.2004 7.14865 10.9931Z" fill="#ffd700" />
	<path d="M29.4813 15.1824C27.8099 14.2157 25.3516 14.6612 25.4996 16.6408C25.6476 18.6204 28.7253 19.6829 29.9344 18.6204C31.1435 17.5579 31.1526 16.149 29.4813 15.1824Z" fill="#ffd700" />
	<path d="M26.2777 16.9846C27.2192 18.2765 26.4314 20.4542 24.518 21.8486C22.6047 23.2431 20.2904 23.3262 19.3488 22.0342C18.4073 20.7423 19.1951 18.5646 21.1085 17.1702C23.0218 15.7758 25.3361 15.6927 26.2777 16.9846Z" fill="#ffd700" />
	<path d="M24.5116 15.506C24.6215 15.7258 24.878 16.1289 25.5741 16.3487L26.6 18.1074C26.6 18.1074 26.4535 18.1074 26.8932 18.7303C26.6733 18.7303 26.5634 19.0234 26.5634 19.0234C26.5634 19.0234 26.8932 19.1333 26.8199 19.6096C26.2336 19.5363 26.0138 20.0493 26.0138 20.0493C26.0138 20.0493 25.9039 20.4157 26.0504 20.7088C26.0138 20.892 25.6703 20.9213 25.3543 20.8632C25.1537 20.8263 25.0612 20.7821 25.0612 20.7821L25.1711 21.9179C24.8047 21.4782 24.4651 21.7319 24.5849 22.211C24.3284 22.1744 24.2917 21.9912 24.2185 22.0645C24.1452 22.1377 24.0841 22.6141 23.8154 22.7606C23.8032 22.5164 23.8741 22.3356 23.6689 22.3942C23.4124 22.4675 23.6322 22.6873 23.5223 22.7606C23.4207 22.8284 22.9222 22.5724 22.5194 22.5142C22.6134 22.5792 22.2564 22.8821 22.3498 23.0171L21.2507 22.7606C21.2507 22.7606 20.9942 23.1637 21.0308 23.3835C20.811 23.4568 20.6644 22.9438 20.6644 22.9438C20.5301 21.6981 20.4226 19.1846 19.895 19.0967C19.3674 19.0087 19.1622 18.5104 19.3088 18.2173C19.7484 18.3272 20.0416 18.1807 20.0416 18.1807C20.0416 18.1807 19.8217 17.8876 19.9683 17.5212C20.4812 17.8143 21.5071 16.825 21.5071 16.825C21.5071 16.825 21.5804 15.5793 21.8735 15.9457C22.1667 16.3121 22.8994 16.3121 22.8994 16.3121C22.8994 16.3121 22.9727 15.506 23.1193 15.7258C23.2658 15.9457 24.2917 16.0556 24.2917 16.0556C24.2917 16.0556 24.4017 15.2862 24.5116 15.506Z" fill="#ffd700" />
	<path d="M51.0625 33.0344V9.5H57.0156C58.401 9.5 59.5052 9.68275 60.3281 10.0482C61.151 10.4048 61.7448 10.9754 62.1094 11.7598C62.4844 12.5354 62.6719 13.5561 62.6719 14.822V15.5441C62.6719 16.7654 62.4844 17.7727 62.1094 18.5661C61.7448 19.3506 61.1302 19.8988 60.2656 20.2108C60.9844 20.4159 61.5573 20.7858 61.9844 21.3207C62.4219 21.8467 62.7344 22.493 62.9219 23.2596C63.1094 24.0174 63.2031 24.8509 63.2031 25.7602V26.3619C63.1927 27.9309 62.9792 29.2101 62.5625 30.1996C62.1458 31.1802 61.4948 31.8978 60.6094 32.3525C59.724 32.8071 58.5677 33.0344 57.1406 33.0344H51.0625ZM55.25 30.2531H56.7344C57.2865 30.2531 57.724 30.1506 58.0469 29.9455C58.3802 29.7316 58.6198 29.3795 58.7656 28.8892C58.9115 28.3989 58.9844 27.7303 58.9844 26.8834V24.9846C58.9844 23.8435 58.8542 23.0145 58.5938 22.4974C58.3438 21.9715 57.8177 21.7085 57.0156 21.7085H55.25V30.2531ZM55.25 19.0207H56.7969C57.1615 19.0207 57.4583 18.9762 57.6875 18.887C57.9167 18.7979 58.0938 18.6463 58.2188 18.4324C58.3438 18.2095 58.4271 17.902 58.4688 17.5097C58.5208 17.1175 58.5469 16.6183 58.5469 16.0121V14.5947C58.5469 13.9617 58.4792 13.4804 58.3438 13.1505C58.2083 12.8207 58 12.5978 57.7188 12.4819C57.4479 12.366 57.0938 12.3081 56.6562 12.3081H55.25V19.0207Z" fill="#0057B7" />
	<path d="M69.8414 33.23C68.8851 33.23 68.098 33.0996 67.4801 32.8389C66.8707 32.5781 66.3926 32.2015 66.0455 31.709C65.707 31.2164 65.47 30.6261 65.3346 29.938C65.1992 29.2427 65.1315 28.4677 65.1315 27.613V21.5397C65.1315 20.7791 65.2204 20.0911 65.3981 19.4754C65.5843 18.8597 65.8678 18.3346 66.2487 17.9C66.638 17.4654 67.1416 17.1323 67.7594 16.9005C68.3773 16.6615 69.122 16.5419 69.9938 16.5419C70.8825 16.5419 71.623 16.6578 72.2155 16.8896C72.8079 17.1214 73.2734 17.4582 73.612 17.9C73.959 18.3419 74.2044 18.8742 74.3483 19.4971C74.5006 20.1128 74.5768 20.8117 74.5768 21.594V25.0815H68.5211V28.2866C68.5211 29.0761 68.5931 29.7099 68.737 30.1879C68.8808 30.666 69.2744 30.905 69.9176 30.905C70.3493 30.905 70.6539 30.7927 70.8317 30.5682C71.0179 30.3436 71.1279 30.0358 71.1618 29.6447C71.2041 29.2463 71.2252 28.7936 71.2252 28.2866V26.8525H74.5514V27.7216C74.5514 28.5981 74.4879 29.3767 74.361 30.0575C74.2425 30.7384 74.014 31.3142 73.6754 31.785C73.3454 32.2558 72.8714 32.6143 72.2536 32.8606C71.6357 33.1069 70.8317 33.23 69.8414 33.23ZM68.5084 23.3975H71.2252V21.3115C71.2252 20.7683 71.1956 20.312 71.1364 19.9426C71.0771 19.5659 70.9586 19.2835 70.7809 19.0951C70.6032 18.9068 70.3323 18.8127 69.9684 18.8127C69.5198 18.8127 69.1898 18.9249 68.9782 19.1495C68.775 19.374 68.6439 19.6818 68.5846 20.0729C68.5338 20.4568 68.5084 20.895 68.5084 21.3876V23.3975Z" fill="#0057B7" />
	<path d="M81.3312 33.23C80.3748 33.23 79.5877 33.0996 78.9699 32.8389C78.3605 32.5781 77.8823 32.2015 77.5353 31.709C77.1968 31.2164 76.9598 30.6261 76.8244 29.938C76.689 29.2427 76.6213 28.4677 76.6213 27.613V21.5397C76.6213 20.7791 76.7101 20.0911 76.8879 19.4754C77.074 18.8597 77.3576 18.3346 77.7384 17.9C78.1278 17.4654 78.6313 17.1323 79.2492 16.9005C79.867 16.6615 80.6118 16.5419 81.4836 16.5419C82.3722 16.5419 83.1128 16.6578 83.7052 16.8896C84.2977 17.1214 84.7632 17.4582 85.1017 17.9C85.4487 18.3419 85.6942 18.8742 85.838 19.4971C85.9904 20.1128 86.0666 20.8117 86.0666 21.594V25.0815H80.0109V28.2866C80.0109 29.0761 80.0828 29.7099 80.2267 30.1879C80.3706 30.666 80.7642 30.905 81.4074 30.905C81.839 30.905 82.1437 30.7927 82.3214 30.5682C82.5076 30.3436 82.6177 30.0358 82.6515 29.6447C82.6938 29.2463 82.715 28.7936 82.715 28.2866V26.8525H86.0412V27.7216C86.0412 28.5981 85.9777 29.3767 85.8507 30.0575C85.7323 30.7384 85.5037 31.3142 85.1652 31.785C84.8351 32.2558 84.3612 32.6143 83.7433 32.8606C83.1255 33.1069 82.3214 33.23 81.3312 33.23ZM79.9982 23.3975H82.715V21.3115C82.715 20.7683 82.6854 20.312 82.6261 19.9426C82.5669 19.5659 82.4484 19.2835 82.2707 19.0951C82.0929 18.9068 81.8221 18.8127 81.4582 18.8127C81.0096 18.8127 80.6795 18.9249 80.4679 19.1495C80.2648 19.374 80.1336 19.6818 80.0744 20.0729C80.0236 20.4568 79.9982 20.895 79.9982 21.3876V23.3975Z" fill="#0057B7" />
	<path d="M88.3776 33.0344V16.7375H91.7419V18.6062C91.9111 18.0485 92.2666 17.5668 92.8083 17.1612C93.3499 16.7484 94.0143 16.5419 94.8014 16.5419C95.9017 16.5419 96.7269 16.857 97.277 17.4872C97.8272 18.1101 98.1022 19.0155 98.1022 20.2033V33.0344H94.738V20.3772C94.738 19.9064 94.611 19.537 94.3571 19.269C94.1117 19.001 93.7731 18.867 93.3415 18.867C92.9945 18.867 92.6983 18.9503 92.4528 19.1169C92.2158 19.2762 92.0381 19.5007 91.9196 19.7905C91.8011 20.0729 91.7419 20.4061 91.7419 20.79V33.0344H88.3776Z" fill="#0057B7" />
	<path d="M105.314 33.23C104.4 33.23 103.634 33.1105 103.016 32.8715C102.398 32.6252 101.907 32.2739 101.543 31.8176C101.188 31.354 100.93 30.7927 100.769 30.1336C100.616 29.4672 100.54 28.7103 100.54 27.8629V21.7678C100.54 20.7466 100.693 19.8448 100.997 19.0625C101.31 18.273 101.818 17.6574 102.521 17.2156C103.223 16.7665 104.154 16.5419 105.314 16.5419C106.194 16.5419 106.934 16.6687 107.535 16.9222C108.145 17.1757 108.631 17.5379 108.995 18.0087C109.368 18.4722 109.639 19.0227 109.808 19.6601C109.977 20.2975 110.062 21.0001 110.062 21.7678V27.8629C110.062 28.6958 109.986 29.4419 109.833 30.101C109.689 30.7601 109.435 31.3251 109.071 31.7959C108.716 32.2594 108.234 32.6143 107.624 32.8606C107.015 33.1069 106.245 33.23 105.314 33.23ZM105.314 30.905C105.695 30.905 105.982 30.8072 106.177 30.6116C106.372 30.4088 106.503 30.13 106.571 29.7751C106.638 29.4201 106.672 29.0109 106.672 28.5473V21.2572C106.672 20.7647 106.634 20.3409 106.558 19.986C106.482 19.6311 106.346 19.3559 106.152 19.1603C105.957 18.9648 105.678 18.867 105.314 18.867C104.933 18.867 104.641 18.9648 104.438 19.1603C104.243 19.3559 104.108 19.6311 104.031 19.986C103.964 20.3409 103.93 20.7647 103.93 21.2572V28.5473C103.93 29.0109 103.964 29.4201 104.031 29.7751C104.108 30.13 104.243 30.4088 104.438 30.6116C104.641 30.8072 104.933 30.905 105.314 30.905Z" fill="#0057B7" />
	<path d="M114.112 33.0344L111.56 16.7375H114.391L115.356 23.6148L115.788 27.1132H115.864L116.283 23.6039L117.413 16.7375H118.365H119.685H120.409L121.653 23.4736L122.186 27.1132H122.262L122.631 23.4844L123.481 16.7375H126.3L123.887 33.0344H120.942L119.012 20.79L116.956 33.0344H114.112Z" fill="#0057B7" />
</svg>
